<?xml version="1.0" encoding="UTF-8"?>
<svg version="1.1" xmlns="http://www.w3.org/2000/svg" width="216" height="122" viewBox="0 0 216 122">
<!-- Background removed for transparent use on dark surfaces -->
<path d="M0 0 C5.06010882 3.26104926 10.41094629 6.04422924 15.68359375 8.94335938 C17.8573994 10.15605089 20.02939965 11.37198673 22.19921875 12.59179688 C23.13540039 13.11692871 24.07158203 13.64206055 25.03613281 14.18310547 C26.87498899 15.24559732 28.66653342 16.39031916 30.43359375 17.56835938 C30.82627753 20.20147153 31.00267 22.49288633 30.99609375 25.13085938 C31.00116943 26.21959351 31.00116943 26.21959351 31.00634766 27.33032227 C30.84597786 33.06707075 29.23454872 36.09387332 25.65234375 40.58007812 C24.14618576 43.03723971 24.20629581 44.03273142 24.80859375 46.81835938 C25.31820178 48.41230005 25.86481007 49.99456385 26.43359375 51.56835938 C27.14611145 53.92126297 27.85427883 56.27548737 28.55859375 58.63085938 C29.18011886 60.61112002 29.80391421 62.59067655 30.43359375 64.56835938 C28.37774278 65.74829141 26.31522834 66.91214393 24.24609375 68.06835938 C23.09753906 68.71804687 21.94898438 69.36773437 20.765625 70.03710938 C17.58222293 71.50005616 15.8605191 71.9297677 12.43359375 71.56835938 C11.8270136 69.63161362 11.22349136 67.69391013 10.62109375 65.75585938 C10.255 64.57894531 9.88890625 63.40203125 9.51171875 62.18945312 C8.27343903 58.03044841 7.22538868 53.8411674 6.2421875 49.61523438 C5.97535156 48.93976563 5.70851562 48.26429687 5.43359375 47.56835938 C4.44359375 47.23835938 3.45359375 46.90835938 2.43359375 46.56835938 C2.48596191 47.53660645 2.53833008 48.50485352 2.59228516 49.50244141 C2.77401641 53.11330817 2.88831969 56.72377802 2.98291016 60.33789062 C3.03304297 61.89815319 3.1011781 63.4579494 3.18798828 65.01660156 C3.45987136 70.02564738 3.53916138 74.65427877 2.43359375 79.56835938 C-0.47828329 82.79789573 -3.50332626 84.168148 -7.56640625 85.56835938 C-10.04140625 86.55835937 -10.04140625 86.55835937 -12.56640625 87.56835938 C-19.00140625 84.10335937 -19.00140625 84.10335937 -25.56640625 80.56835938 C-25.56640625 69.34835938 -25.56640625 58.12835938 -25.56640625 46.56835938 C-29.19640625 46.56835938 -32.82640625 46.56835938 -36.56640625 46.56835938 C-36.56640625 55.14835937 -36.56640625 63.72835937 -36.56640625 72.56835938 C-41.56640625 71.56835938 -41.56640625 71.56835938 -54.56640625 64.56835938 C-54.56640625 49.05835937 -54.56640625 33.54835937 -54.56640625 17.56835938 C-40.56640625 9.56835938 -40.56640625 9.56835938 -36.56640625 9.56835938 C-36.56640625 16.82835938 -36.56640625 24.08835938 -36.56640625 31.56835938 C-32.93640625 31.56835938 -29.30640625 31.56835938 -25.56640625 31.56835938 C-25.63448486 30.70146484 -25.70256348 29.83457031 -25.77270508 28.94140625 C-27.54442681 3.11946776 -27.54442681 3.11946776 -23.19921875 -2.48632812 C-14.39339789 -8.88077505 -8.04901183 -5.43345771 0 0 Z " fill="#1194A2" transform="translate(120.56640625,23.431640625)"/>
<path d="M0 0 C0 31.02 0 62.04 0 94 C-6.93 90.535 -6.93 90.535 -14 87 C-14 75.78 -14 64.56 -14 53 C-17.63 53 -21.26 53 -25 53 C-25 61.58 -25 70.16 -25 79 C-30 78 -30 78 -43 71 C-43 55.49 -43 39.98 -43 24 C-29 16 -29 16 -25 16 C-25 23.26 -25 30.52 -25 38 C-21.37 38 -17.74 38 -14 38 C-14.06807861 37.13310547 -14.13615723 36.26621094 -14.20629883 35.37304688 C-15.86085968 11.25866823 -15.86085968 11.25866823 -12.74023438 5.79394531 C-9.46422631 2.58393741 -4.69405343 0 0 0 Z " fill="#3B3C3C" transform="translate(109,17)"/>
<path d="M0 0 C1.32 0 2.64 0 4 0 C4.79298919 2.832969 5.58442272 5.66635785 6.375 8.5 C6.59671875 9.29148437 6.8184375 10.08296875 7.046875 10.8984375 C8.44481389 15.91457115 9.75888215 20.94273476 11 26 C9.68 26 8.36 26 7 26 C4.23105004 17.41203845 1.9054733 8.82003173 0 0 Z " fill="#1194A2" transform="translate(126,69)"/>
<path d="M0 0 C7.66666667 3.06666667 7.66666667 3.06666667 10 5 C10.3125 8.6875 10.3125 8.6875 10 12 C6.7 12 3.4 12 0 12 C0 8.04 0 4.08 0 0 Z " fill="#F0F0F0" transform="translate(123,42)"/>
<path d="M0 0 C0.99 0 1.98 0 3 0 C3 8.58 3 17.16 3 26 C2.01 26 1.02 26 0 26 C0 17.42 0 8.84 0 0 Z " fill="#3B3C3C" transform="translate(81,69)"/>
<path d="M0 0 C1.96074484 0.95338969 3.91852652 1.9128754 5.875 2.875 C6.96554688 3.40867188 8.05609375 3.94234375 9.1796875 4.4921875 C12 6 12 6 14 8 C14.1953125 10.1640625 14.1953125 10.1640625 14.125 12.625 C14.10695312 13.44226562 14.08890625 14.25953125 14.0703125 15.1015625 C14.03550781 16.04128906 14.03550781 16.04128906 14 17 C13.01 17 12.02 17 11 17 C11.04125 15.96875 11.0825 14.9375 11.125 13.875 C10.97811192 11.88371102 10.97811192 11.88371102 10 10 C7.48549166 8.17944456 4.94215776 6.81476682 2.15234375 5.45703125 C1.44207031 4.97621094 0.73179688 4.49539062 0 4 C0 2.68 0 1.36 0 0 Z " fill="#1194A2" transform="translate(123,38)"/>
<path d="M0 0 C0.99 0 1.98 0 3 0 C3 6.93 3 13.86 3 21 C2.01 21 1.02 21 0 21 C0 14.07 0 7.14 0 0 Z " fill="#3B3C3C" transform="translate(81,34)"/>
</svg>
